# xmcd
#
# Track frame offsets: 
#        150
#        18872
#        34736
#        58210
#        75716
#        100382
#        116439
#        135679
#        151550
#        164604
#        179423
#        194172
#        210690
#        227622
#        243264
#
# Disc length: 3595 seconds
#
# Revision: 1
# Processed by: cddbd v1.5.2PL0 Copyright (c) Steve Scherf et al.
# Submitted via: ExactAudioCopyFreeDBPlugin 1.0
#
DISCID=c70e090f
DTITLE=John Lee Hooker Jr. and Daddy's Cash - That's What The Blues Is A
DTITLE=ll About
DYEAR=2012
DGENRE=Blues
TTITLE0=Speeding
TTITLE1=Check Your Ego At The Door
TTITLE2=I'm A Grown Man
TTITLE3=Boogie Woogie
TTITLE4=Work Until I Die
TTITLE5=Let You Go
TTITLE6=Bad Friend
TTITLE7=Something's Wrong
TTITLE8=That's What The Blues Is All About
TTITLE9=I Can Do Bad All By Myself
TTITLE10=Let's Go Home
TTITLE11=I Gotta Do What I Gotta Do
TTITLE12=You Funny Too
TTITLE13=Chingaling Chingaling
TTITLE14=Daddy's Blues
EXTD=
EXTT0=
EXTT1=
EXTT2=
EXTT3=
EXTT4=
EXTT5=
EXTT6=
EXTT7=
EXTT8=
EXTT9=
EXTT10=
EXTT11=
EXTT12=
EXTT13=
EXTT14=
PLAYORDER=
